<?xml version="1.0" standalone="no"?>
<!DOCTYPE svg PUBLIC "-//W3C//DTD SVG 20010904//EN"
 "http://www.w3.org/TR/2001/REC-SVG-20010904/DTD/svg10.dtd">
<svg version="1.0" xmlns="http://www.w3.org/2000/svg"
 width="256.000000pt" height="105.000000pt" viewBox="0 0 256.000000 105.000000"
 preserveAspectRatio="xMidYMid meet">
<metadata>
Created by potrace 1.16, written by Peter Selinger 2001-2019
</metadata>
<g transform="translate(0.000000,105.000000) scale(0.100000,-0.100000)"
fill="#000000" stroke="none">
<path d="M233 1036 c-91 -30 -186 -116 -217 -198 -27 -69 -19 -176 16 -248 35
-69 230 -305 259 -313 49 -13 107 40 95 87 -3 13 -42 68 -87 122 -90 109 -109
144 -109 202 0 57 24 107 75 157 54 52 116 75 200 75 78 0 142 -22 194 -66 50
-44 53 -26 6 43 -38 56 -75 88 -145 124 -36 19 -64 23 -145 26 -65 2 -115 -2
-142 -11z"/>
<path d="M962 915 c-95 -29 -142 -93 -142 -190 0 -118 48 -157 259 -210 93
-24 137 -49 150 -85 24 -70 -33 -120 -137 -120 -34 0 -77 6 -96 14 -40 17 -76
60 -76 92 0 23 -4 24 -60 24 -68 0 -68 0 -48 -78 15 -59 85 -132 144 -150 60
-18 201 -15 259 4 97 34 155 128 141 232 -11 82 -62 129 -178 162 -37 11 -99
29 -138 40 -77 23 -104 49 -98 96 7 64 120 94 201 55 41 -20 67 -53 67 -86 0
-12 14 -15 60 -15 67 0 68 1 49 77 -17 64 -70 117 -138 137 -65 19 -160 20
-219 1z"/>
<path d="M1551 911 c-29 -10 -65 -27 -79 -38 -32 -24 -68 -93 -77 -145 l-6
-38 59 0 60 0 6 34 c13 67 98 108 193 91 62 -10 93 -45 93 -104 0 -53 -24 -66
-190 -96 -173 -32 -240 -93 -240 -217 0 -69 16 -113 56 -150 41 -38 75 -48
162 -48 85 0 147 22 195 67 25 25 27 26 27 6 0 -11 9 -32 21 -47 17 -22 28
-26 69 -26 73 0 80 5 80 60 0 46 -2 49 -27 52 l-28 3 -5 245 c-6 285 -9 297
-95 340 -67 33 -197 39 -274 11z m249 -420 c0 -81 -22 -122 -85 -159 -33 -19
-52 -22 -107 -20 -76 4 -104 22 -114 74 -7 39 11 80 46 106 15 11 71 27 135
38 59 11 111 22 113 25 11 10 12 3 12 -64z"/>
<path d="M2145 921 c-136 -33 -201 -159 -144 -278 26 -54 78 -86 185 -113 130
-33 173 -50 194 -77 37 -48 21 -105 -35 -129 -50 -21 -148 -18 -194 6 -35 17
-71 68 -71 99 0 7 -22 11 -56 11 l-57 0 5 -43 c11 -93 72 -164 162 -188 23 -6
84 -9 136 -7 108 5 157 24 208 82 35 41 46 84 40 160 -8 98 -65 141 -242 185
-104 26 -140 42 -162 76 -14 21 -14 30 -5 54 17 40 54 56 126 56 75 0 110 -21
134 -76 16 -38 17 -39 69 -39 l52 0 0 37 c0 84 -67 161 -160 182 -51 12 -140
13 -185 2z"/>
<path d="M335 756 c-45 -45 -38 -65 76 -201 90 -108 102 -134 97 -206 -5 -66
-36 -121 -93 -164 -50 -38 -100 -54 -175 -55 -80 0 -149 23 -197 67 -20 18
-38 31 -40 29 -10 -9 41 -89 80 -128 67 -65 134 -91 247 -96 79 -3 105 0 152
17 135 51 222 169 222 300 0 98 -33 162 -167 322 -97 116 -116 134 -144 137
-24 2 -39 -3 -58 -22z"/>
</g>
</svg>
